<svg width="441" height="441" viewBox="0 0 441 441" fill="none" xmlns="http://www.w3.org/2000/svg">
    <g filter="url(#filter0_d_9_143)">
        <path d="M120.636 326V279.455H126.273V321H147.909V326H120.636ZM155.909 326V291.091H161.273V326H155.909ZM158.636 285.273C157.591 285.273 156.689 284.917 155.932 284.205C155.189 283.492 154.818 282.636 154.818 281.636C154.818 280.636 155.189 279.78 155.932 279.068C156.689 278.356 157.591 278 158.636 278C159.682 278 160.576 278.356 161.318 279.068C162.076 279.78 162.455 280.636 162.455 281.636C162.455 282.636 162.076 283.492 161.318 284.205C160.576 284.917 159.682 285.273 158.636 285.273ZM171.824 326V279.455H177.188V296.636H177.642C178.036 296.03 178.581 295.258 179.278 294.318C179.991 293.364 181.006 292.515 182.324 291.773C183.657 291.015 185.46 290.636 187.733 290.636C190.672 290.636 193.263 291.371 195.506 292.841C197.748 294.311 199.498 296.394 200.756 299.091C202.013 301.788 202.642 304.97 202.642 308.636C202.642 312.333 202.013 315.538 200.756 318.25C199.498 320.947 197.756 323.038 195.528 324.523C193.301 325.992 190.733 326.727 187.824 326.727C185.581 326.727 183.786 326.356 182.438 325.614C181.089 324.856 180.051 324 179.324 323.045C178.597 322.076 178.036 321.273 177.642 320.636H177.006V326H171.824ZM177.097 308.545C177.097 311.182 177.483 313.508 178.256 315.523C179.028 317.523 180.157 319.091 181.642 320.227C183.127 321.348 184.945 321.909 187.097 321.909C189.339 321.909 191.21 321.318 192.71 320.136C194.225 318.939 195.362 317.333 196.119 315.318C196.892 313.288 197.278 311.03 197.278 308.545C197.278 306.091 196.9 303.879 196.142 301.909C195.4 299.924 194.271 298.356 192.756 297.205C191.256 296.038 189.369 295.455 187.097 295.455C184.915 295.455 183.081 296.008 181.597 297.114C180.112 298.205 178.991 299.735 178.233 301.705C177.475 303.659 177.097 305.939 177.097 308.545ZM210.847 326V291.091H216.028V296.364H216.392C217.028 294.636 218.18 293.235 219.847 292.159C221.513 291.083 223.392 290.545 225.483 290.545C225.877 290.545 226.369 290.553 226.96 290.568C227.551 290.583 227.998 290.606 228.301 290.636V296.091C228.119 296.045 227.703 295.977 227.051 295.886C226.415 295.78 225.741 295.727 225.028 295.727C223.331 295.727 221.816 296.083 220.483 296.795C219.165 297.492 218.119 298.462 217.347 299.705C216.589 300.932 216.21 302.333 216.21 303.909V326H210.847ZM244.932 326.818C242.72 326.818 240.712 326.402 238.909 325.568C237.106 324.72 235.674 323.5 234.614 321.909C233.553 320.303 233.023 318.364 233.023 316.091C233.023 314.091 233.417 312.47 234.205 311.227C234.992 309.97 236.045 308.985 237.364 308.273C238.682 307.561 240.136 307.03 241.727 306.682C243.333 306.318 244.947 306.03 246.568 305.818C248.689 305.545 250.409 305.341 251.727 305.205C253.061 305.053 254.03 304.803 254.636 304.455C255.258 304.106 255.568 303.5 255.568 302.636V302.455C255.568 300.212 254.955 298.47 253.727 297.227C252.515 295.985 250.674 295.364 248.205 295.364C245.644 295.364 243.636 295.924 242.182 297.045C240.727 298.167 239.705 299.364 239.114 300.636L234.023 298.818C234.932 296.697 236.144 295.045 237.659 293.864C239.189 292.667 240.856 291.833 242.659 291.364C244.477 290.879 246.265 290.636 248.023 290.636C249.144 290.636 250.432 290.773 251.886 291.045C253.356 291.303 254.773 291.841 256.136 292.659C257.515 293.477 258.659 294.712 259.568 296.364C260.477 298.015 260.932 300.227 260.932 303V326H255.568V321.273H255.295C254.932 322.03 254.326 322.841 253.477 323.705C252.629 324.568 251.5 325.303 250.091 325.909C248.682 326.515 246.962 326.818 244.932 326.818ZM245.75 322C247.871 322 249.659 321.583 251.114 320.75C252.583 319.917 253.689 318.841 254.432 317.523C255.189 316.205 255.568 314.818 255.568 313.364V308.455C255.341 308.727 254.841 308.977 254.068 309.205C253.311 309.417 252.432 309.606 251.432 309.773C250.447 309.924 249.485 310.061 248.545 310.182C247.621 310.288 246.871 310.379 246.295 310.455C244.902 310.636 243.598 310.932 242.386 311.341C241.189 311.735 240.22 312.333 239.477 313.136C238.75 313.924 238.386 315 238.386 316.364C238.386 318.227 239.076 319.636 240.455 320.591C241.848 321.53 243.614 322 245.75 322ZM270.722 326V291.091H275.903V296.364H276.267C276.903 294.636 278.055 293.235 279.722 292.159C281.388 291.083 283.267 290.545 285.358 290.545C285.752 290.545 286.244 290.553 286.835 290.568C287.426 290.583 287.873 290.606 288.176 290.636V296.091C287.994 296.045 287.578 295.977 286.926 295.886C286.29 295.78 285.616 295.727 284.903 295.727C283.206 295.727 281.691 296.083 280.358 296.795C279.04 297.492 277.994 298.462 277.222 299.705C276.464 300.932 276.085 302.333 276.085 303.909V326H270.722ZM299.051 339.091C298.142 339.091 297.331 339.015 296.619 338.864C295.907 338.727 295.415 338.591 295.142 338.455L296.506 333.727C297.809 334.061 298.96 334.182 299.96 334.091C300.96 334 301.847 333.553 302.619 332.75C303.407 331.962 304.127 330.682 304.778 328.909L305.778 326.182L292.869 291.091H298.688L308.324 318.909H308.688L318.324 291.091H324.142L309.324 331.091C308.657 332.894 307.831 334.386 306.847 335.568C305.862 336.765 304.718 337.652 303.415 338.227C302.127 338.803 300.672 339.091 299.051 339.091Z" fill="white"/>
    </g>
    <circle opacity="0.5" cx="220.5" cy="220.5" r="220.5" fill="#1C1B1B" fill-opacity="0.33"/>
    <path d="M337 241.246V75.7938L336.181 75.6056C300.496 67.4419 263.412 67.4933 227.75 75.7559V241.216C263.725 233.213 301.029 233.223 337 241.246ZM327.451 217.275C327.361 217.891 327.15 218.482 326.831 219.016C326.512 219.551 326.09 220.017 325.59 220.388C325.091 220.76 324.522 221.03 323.917 221.183C323.312 221.335 322.683 221.368 322.066 221.279C311.267 219.713 300.374 218.883 289.462 218.793C288.202 218.788 286.996 218.285 286.108 217.394C285.221 216.502 284.726 215.296 284.73 214.041C284.736 212.785 285.241 211.582 286.135 210.698C287.029 209.813 288.239 209.32 289.499 209.325H289.538C300.882 209.418 312.207 210.28 323.434 211.906C324.052 211.995 324.645 212.205 325.181 212.524C325.718 212.842 326.185 213.262 326.558 213.761C326.932 214.259 327.203 214.826 327.356 215.429C327.508 216.032 327.541 216.66 327.451 217.275ZM308.527 195.998C308.662 194.75 309.289 193.606 310.269 192.818C311.25 192.03 312.504 191.663 313.756 191.796C316.874 192.129 320.018 192.525 323.103 192.973C323.725 193.057 324.324 193.263 324.866 193.579C325.407 193.895 325.881 194.316 326.258 194.816C326.636 195.315 326.911 195.884 327.067 196.49C327.222 197.097 327.255 197.728 327.165 198.347C327.074 198.966 326.862 199.561 326.539 200.098C326.216 200.634 325.79 201.102 325.285 201.474C324.78 201.845 324.206 202.113 323.596 202.262C322.986 202.411 322.353 202.438 321.733 202.342C318.768 201.912 315.743 201.531 312.744 201.21C312.123 201.144 311.522 200.956 310.975 200.659C310.427 200.361 309.944 199.959 309.552 199.475C309.161 198.991 308.869 198.434 308.693 197.838C308.517 197.241 308.461 196.616 308.527 195.998ZM327.45 179.456C327.359 180.072 327.148 180.663 326.828 181.197C326.509 181.731 326.087 182.197 325.586 182.568C325.085 182.939 324.516 183.208 323.911 183.36C323.306 183.511 322.677 183.543 322.059 183.452C311.262 181.873 300.369 181.029 289.455 180.925C288.196 180.919 286.99 180.415 286.103 179.523C285.216 178.631 284.721 177.424 284.727 176.169C284.733 174.914 285.239 173.712 286.133 172.828C287.029 171.944 288.239 171.451 289.499 171.456H289.545C300.89 171.565 312.214 172.443 323.441 174.084C324.687 174.266 325.81 174.935 326.561 175.943C327.313 176.95 327.632 178.214 327.45 179.456ZM247.536 165.273C246.919 165.381 246.287 165.365 245.675 165.228C245.064 165.091 244.487 164.834 243.975 164.474C243.464 164.113 243.029 163.656 242.696 163.127C242.363 162.598 242.138 162.009 242.034 161.393C241.931 160.777 241.95 160.147 242.092 159.539C242.233 158.931 242.495 158.356 242.86 157.849C243.225 157.342 243.687 156.912 244.22 156.583C244.753 156.255 245.345 156.035 245.964 155.935C258.768 153.797 271.72 152.655 284.702 152.521C285.326 152.515 285.945 152.632 286.524 152.863C287.102 153.095 287.629 153.439 288.075 153.874C288.52 154.309 288.875 154.828 289.12 155.4C289.365 155.971 289.493 156.586 289.5 157.208C289.507 157.83 289.39 158.446 289.157 159.023C288.924 159.6 288.579 160.125 288.143 160.57C287.706 161.013 287.186 161.367 286.612 161.611C286.038 161.855 285.422 161.983 284.798 161.99C272.311 162.118 259.852 163.216 247.536 165.273ZM270.825 181.473C263.056 182.006 255.221 182.924 247.536 184.21C246.919 184.317 246.287 184.302 245.675 184.165C245.064 184.028 244.487 183.771 243.975 183.411C243.464 183.05 243.029 182.592 242.696 182.063C242.363 181.534 242.138 180.946 242.034 180.33C241.931 179.714 241.95 179.084 242.092 178.475C242.233 177.868 242.495 177.293 242.86 176.786C243.225 176.279 243.687 175.849 244.22 175.52C244.753 175.192 245.345 174.972 245.964 174.872C253.953 173.536 262.099 172.579 270.175 172.027C271.432 171.941 272.672 172.357 273.621 173.181C274.571 174.006 275.153 175.174 275.239 176.427C275.325 177.679 274.909 178.915 274.081 179.861C273.253 180.808 272.082 181.388 270.825 181.473ZM242 90.9645C242 89.8875 242.369 88.8424 243.045 88.0021C243.721 87.1618 244.665 86.5765 245.72 86.3427L259.143 83.3697C279.173 78.9349 300.036 80.0078 319.502 86.4729C320.448 86.7872 321.27 87.3902 321.853 88.1962C322.436 89.0022 322.75 89.9709 322.75 90.9645V133.572C322.75 134.323 322.571 135.062 322.228 135.73C321.886 136.397 321.388 136.974 320.778 137.413C320.167 137.852 319.461 138.14 318.716 138.253C317.972 138.366 317.212 138.301 316.498 138.064C298.666 132.14 279.553 131.157 261.204 135.22L247.78 138.194C247.086 138.348 246.366 138.344 245.673 138.183C244.98 138.022 244.332 137.709 243.778 137.265C243.223 136.822 242.775 136.259 242.467 135.62C242.16 134.981 242 134.281 242 133.572V90.9645ZM246.744 203.213C245.552 203.212 244.404 202.765 243.528 201.961C242.651 201.156 242.11 200.053 242.011 198.869C241.913 197.685 242.265 196.507 242.997 195.57C243.73 194.633 244.788 194.004 245.964 193.809C261.958 191.138 278.176 190.025 294.387 190.486C295.646 190.522 296.839 191.055 297.704 191.968C298.569 192.881 299.034 194.099 298.998 195.354C298.962 196.609 298.427 197.799 297.511 198.66C296.595 199.523 295.373 199.986 294.113 199.95C278.52 199.505 262.921 200.575 247.536 203.146C247.274 203.19 247.009 203.213 246.744 203.213ZM356 84.858V262.816C356 263.002 355.956 263.185 355.872 263.351C355.788 263.516 355.666 263.66 355.515 263.77C355.365 263.88 355.191 263.954 355.007 263.984C354.823 264.015 354.634 264.001 354.456 263.945L339.232 259.204C303.806 248.242 265.757 249.112 230.873 261.681C230.702 261.743 230.534 261.816 230.371 261.897C228.08 263.032 225.555 263.622 222.996 263.622C220.437 263.622 217.912 263.032 215.62 261.897C215.458 261.816 215.29 261.743 215.119 261.681C180.235 249.113 142.186 248.243 106.76 259.204L91.5437 263.945C91.3659 264 91.1773 264.014 90.9934 263.983C90.8095 263.953 90.6353 263.88 90.4849 263.77C90.3346 263.66 90.2124 263.516 90.1281 263.351C90.0439 263.185 90 263.002 90 262.816V84.8562C93.1386 83.7863 96.3139 82.7814 99.5 81.834V247.193C99.4995 247.905 99.6604 248.609 99.9707 249.25C100.281 249.893 100.733 250.457 101.292 250.9C101.851 251.344 102.504 251.656 103.201 251.813C103.898 251.971 104.622 251.969 105.319 251.809L109.819 250.774C146.711 242.331 185.08 242.675 221.812 251.777C221.986 251.821 222.162 251.854 222.339 251.879L222.441 251.891C222.583 251.908 222.726 251.919 222.87 251.923C222.895 251.923 222.919 251.923 222.944 251.923C222.968 251.923 222.98 251.923 222.998 251.923C223.067 251.923 223.137 251.913 223.207 251.91C223.311 251.906 223.414 251.902 223.518 251.891C223.591 251.883 223.664 251.869 223.737 251.857C223.853 251.84 223.967 251.82 224.081 251.794C224.105 251.788 224.129 251.786 224.154 251.78C260.897 242.669 299.279 242.321 336.183 250.765L340.684 251.8C341.38 251.96 342.102 251.961 342.799 251.805C343.495 251.647 344.146 251.336 344.706 250.893C345.264 250.451 345.716 249.888 346.027 249.248C346.337 248.607 346.499 247.904 346.5 247.193V81.8346C349.685 82.7814 352.86 83.7857 356 84.8562V84.858ZM303.75 60.974C297.431 60.4335 291.098 60.1325 284.75 60.0709V43L291.615 47.5614C292.395 48.08 293.312 48.3567 294.25 48.3567C295.188 48.3567 296.105 48.08 296.885 47.5614L303.75 43V60.974ZM259.143 125.977L251.5 127.67V94.7619L261.204 92.6126C278.426 88.7998 296.339 89.4271 313.25 94.4352V127.202C295.579 122.442 277.013 122.021 259.143 125.977ZM218.25 241.207V75.7559C182.588 67.4926 145.504 67.4418 109.819 75.6074L109 75.7938V241.246C144.97 233.221 182.274 233.207 218.25 241.207ZM199.256 132.799C199.023 132.799 198.79 132.782 198.559 132.748C187.762 131.17 176.869 130.326 165.956 130.222C165.332 130.219 164.715 130.094 164.14 129.853C163.564 129.613 163.043 129.262 162.604 128.82C161.717 127.928 161.222 126.722 161.227 125.466C161.233 124.21 161.739 123.008 162.634 122.125C163.529 121.241 164.739 120.747 165.999 120.753H166.044C177.389 120.862 188.714 121.74 199.941 123.381C201.128 123.554 202.206 124.168 202.957 125.1C203.708 126.033 204.078 127.214 203.992 128.407C203.905 129.6 203.368 130.716 202.49 131.531C201.611 132.345 200.456 132.799 199.256 132.799ZM203.618 147.635C203.529 148.25 203.318 148.842 203 149.376C202.681 149.911 202.259 150.377 201.759 150.748C201.259 151.12 200.69 151.391 200.085 151.543C199.48 151.695 198.852 151.728 198.234 151.638C195.249 151.205 192.224 150.824 189.244 150.506C188.004 150.358 186.873 149.728 186.095 148.754C185.318 147.781 184.956 146.541 185.088 145.303C185.221 144.066 185.838 142.93 186.804 142.142C187.771 141.353 189.01 140.977 190.254 141.093C193.351 141.423 196.495 141.819 199.599 142.268C200.217 142.357 200.81 142.567 201.347 142.884C201.883 143.203 202.351 143.623 202.724 144.121C203.097 144.619 203.369 145.186 203.522 145.789C203.675 146.392 203.708 147.019 203.618 147.635ZM122.464 86.2954C135.268 84.1567 148.22 83.0152 161.202 82.8814H161.25C162.51 82.8755 163.721 83.3679 164.615 84.2514C165.511 85.1349 166.017 86.3368 166.024 87.592C166.03 88.8477 165.535 90.0543 164.649 90.9467C163.762 91.8391 162.557 92.3439 161.297 92.3498C148.81 92.4783 136.351 93.576 124.035 95.6336C123.42 95.7366 122.79 95.7176 122.182 95.578C121.574 95.4383 121 95.1809 120.492 94.8199C119.984 94.4595 119.552 94.0021 119.222 93.4754C118.891 92.9481 118.667 92.3611 118.564 91.748C118.461 91.1349 118.48 90.5076 118.62 89.9017C118.76 89.2957 119.018 88.7234 119.38 88.2169C119.742 87.7109 120.201 87.2801 120.73 86.9505C121.259 86.6209 121.848 86.3984 122.463 86.2954H122.464ZM122.464 105.232C147.977 100.958 174.002 100.676 199.602 104.394C200.849 104.575 201.972 105.242 202.726 106.248C203.479 107.254 203.801 108.517 203.62 109.76C203.439 111.003 202.77 112.122 201.76 112.873C200.751 113.624 199.483 113.945 198.236 113.764C173.611 110.186 148.577 110.458 124.036 114.57C122.794 114.778 121.519 114.486 120.493 113.757C119.985 113.396 119.554 112.939 119.223 112.412C118.892 111.885 118.669 111.298 118.565 110.685C118.462 110.072 118.481 109.444 118.621 108.838C118.761 108.232 119.02 107.66 119.382 107.154C120.113 106.131 121.221 105.44 122.464 105.232ZM122.464 124.169C130.45 122.833 138.597 121.875 146.675 121.324C147.932 121.238 149.172 121.653 150.121 122.478C151.071 123.303 151.653 124.471 151.739 125.723C151.825 126.976 151.409 128.211 150.581 129.158C149.753 130.104 148.582 130.684 147.325 130.77C139.554 131.303 131.719 132.222 124.036 133.507C122.794 133.715 121.519 133.423 120.493 132.693C119.985 132.333 119.554 131.876 119.223 131.349C118.892 130.822 118.669 130.235 118.565 129.622C118.462 129.008 118.481 128.381 118.621 127.775C118.761 127.169 119.02 126.597 119.382 126.09C120.113 125.068 121.221 124.377 122.464 124.169ZM118.565 148.558C118.462 147.945 118.481 147.318 118.621 146.712C118.761 146.106 119.019 145.534 119.381 145.027C119.743 144.521 120.202 144.09 120.731 143.761C121.26 143.431 121.849 143.209 122.464 143.106C138.458 140.433 154.675 139.32 170.887 139.782C172.146 139.799 173.348 140.316 174.226 141.216C175.104 142.116 175.587 143.327 175.569 144.583C175.552 145.839 175.034 147.036 174.131 147.911C173.227 148.786 172.012 149.268 170.752 149.25H170.613C155.02 148.805 139.421 149.874 124.036 152.446C123.421 152.549 122.791 152.53 122.184 152.39C121.576 152.25 121.001 151.993 120.493 151.632C119.985 151.272 119.553 150.814 119.223 150.287C118.892 149.76 118.669 149.173 118.565 148.56V148.558ZM142.454 220.436L129.03 223.409C128.336 223.563 127.616 223.56 126.923 223.399C126.23 223.238 125.582 222.924 125.028 222.48C124.473 222.037 124.025 221.475 123.717 220.836C123.41 220.197 123.25 219.497 123.25 218.788V176.18C123.25 175.103 123.618 174.058 124.295 173.218C124.971 172.377 125.915 171.792 126.97 171.558L140.393 168.585C160.424 164.15 181.286 165.223 200.752 171.688C201.698 172.003 202.52 172.606 203.103 173.412C203.687 174.218 204 175.186 204 176.18V218.788C204 219.538 203.821 220.277 203.478 220.945C203.136 221.613 202.638 222.19 202.028 222.628C201.417 223.067 200.711 223.355 199.966 223.468C199.222 223.581 198.462 223.517 197.748 223.279C179.916 217.356 160.804 216.373 142.454 220.436ZM194.5 179.651V212.417C176.829 207.656 158.263 207.236 140.393 211.193L132.75 212.886V179.977L142.454 177.828C159.676 174.015 177.589 174.643 194.5 179.651Z" fill="url(#paint0_linear_9_143)"/>
    <defs>
        <filter id="filter0_d_9_143" x="116.636" y="278" width="211.506" height="69.0909" filterUnits="userSpaceOnUse" color-interpolation-filters="sRGB">
            <feFlood flood-opacity="0" result="BackgroundImageFix"/>
            <feColorMatrix in="SourceAlpha" type="matrix" values="0 0 0 0 0 0 0 0 0 0 0 0 0 0 0 0 0 0 127 0" result="hardAlpha"/>
            <feOffset dy="4"/>
            <feGaussianBlur stdDeviation="2"/>
            <feComposite in2="hardAlpha" operator="out"/>
            <feColorMatrix type="matrix" values="0 0 0 0 0 0 0 0 0 0 0 0 0 0 0 0 0 0 0.25 0"/>
            <feBlend mode="normal" in2="BackgroundImageFix" result="effect1_dropShadow_9_143"/>
            <feBlend mode="normal" in="SourceGraphic" in2="effect1_dropShadow_9_143" result="shape"/>
        </filter>
        <linearGradient id="paint0_linear_9_143" x1="111.738" y1="284.973" x2="333.52" y2="62.4509" gradientUnits="userSpaceOnUse">
            <stop stop-color="#41DFD0"/>
            <stop offset="1" stop-color="#EE83EF"/>
        </linearGradient>
    </defs>
</svg>
