<svg width="320" height="311" viewBox="0 0 320 311" fill="none" xmlns="http://www.w3.org/2000/svg">
    <ellipse cx="159.617" cy="155.5" rx="159.617" ry="155.5" fill="white"/>
    <path d="M189.101 142.545C230.151 113.46 210.041 48.2992 159.116 47.8667C108.154 48.2271 88.0798 113.46 129.166 142.473C109.682 148.843 92.7067 161.203 80.6625 177.791C68.6182 194.378 62.1199 214.346 62.0946 234.845C62.0946 267.281 79.7184 269.984 109.452 255.532C147.619 237.872 170.721 237.908 208.852 255.532C236.567 268.903 256.389 269.083 256.209 234.845C256.166 214.354 249.655 194.399 237.605 177.825C225.555 161.252 208.581 148.905 189.101 142.545V142.545ZM121.453 100.017C121.449 95.0667 122.419 90.1636 124.309 85.588C126.199 81.0124 128.972 76.8539 132.469 73.35C135.967 69.846 140.12 67.0652 144.692 65.1663C149.264 63.2674 154.165 62.2876 159.116 62.2829C209.068 64.3732 209.068 135.553 159.116 137.608C149.142 137.598 139.579 133.637 132.52 126.591C125.461 119.546 121.482 109.991 121.453 100.017V100.017ZM238.837 249.261C235.702 251.351 223.952 246.306 214.546 242.269C199.265 235.746 180.271 227.637 159.152 227.637C138.032 227.637 119.075 235.746 103.793 242.269C94.3508 246.306 82.6377 251.351 79.5022 249.261C78.9976 248.937 76.5108 246.702 76.5108 234.845C76.5108 212.927 85.2176 191.907 100.716 176.409C116.214 160.911 137.234 152.204 159.152 152.204C181.069 152.204 202.089 160.911 217.588 176.409C233.086 191.907 241.793 212.927 241.793 234.845C241.793 246.702 239.306 248.937 238.837 249.261Z" fill="url(#paint0_linear_25_31)"/>
    <defs>
        <linearGradient id="paint0_linear_25_31" x1="62.0946" y1="155.916" x2="256.209" y2="155.916" gradientUnits="userSpaceOnUse">
            <stop stop-color="#17A6D7"/>
            <stop offset="1" stop-color="#9D31FE"/>
        </linearGradient>
    </defs>
</svg>
